<svg width="59" height="59" viewBox="0 0 59 59" fill="none" xmlns="http://www.w3.org/2000/svg">
<rect width="59" height="59" rx="29.5" fill="#F23670"/>
<path d="M29.9453 31.9454C31.5051 31.9454 32.7696 30.6809 32.7696 29.1211C32.7696 27.5613 31.5051 26.2969 29.9453 26.2969C28.3856 26.2969 27.1211 27.5613 27.1211 29.1211C27.1211 30.6809 28.3856 31.9454 29.9453 31.9454Z" stroke="white" stroke-width="1.5" stroke-miterlimit="10" stroke-linecap="round" stroke-linejoin="round"/>
<path d="M31.8842 22.0377L31.6402 20.084H28.2511L28.0072 22.0377C27.4068 22.2017 26.8374 22.4402 26.3087 22.7424L24.7537 21.5328L22.3571 23.9292L23.5664 25.4844C23.2647 26.0127 23.0258 26.5825 22.862 27.1828L20.9082 27.427V30.8161L22.862 31.0603C23.0258 31.6604 23.2642 32.23 23.5664 32.7587L22.3571 34.3138L24.7537 36.7102L26.3087 35.5006C26.8368 35.8028 27.4068 36.0413 28.0072 36.2054L28.2511 38.1591H31.6402L31.8842 36.2054C32.4846 36.0413 33.054 35.8029 33.5827 35.5006L35.1377 36.7102L37.5343 34.3138L36.325 32.7587C36.6266 32.2303 36.8656 31.6606 37.0294 31.0603L38.9832 30.8161V27.427L37.0294 27.1828C36.8656 26.5827 36.6272 26.0131 36.325 25.4844L37.5343 23.9292L35.1377 21.5328L33.5827 22.7424C33.0546 22.4404 32.4847 22.2019 31.8842 22.0377Z" stroke="white" stroke-width="1.5" stroke-miterlimit="10" stroke-linecap="round" stroke-linejoin="round"/>
<path d="M20.9082 43.2414H29.9457C33.6906 43.2414 37.2824 41.7536 39.931 39.1054C42.579 36.4573 44.0667 32.8654 44.0667 29.1203C44.0667 25.0943 44.0667 21.7773 44.0667 21.7773" stroke="white" stroke-width="1.5" stroke-miterlimit="10" stroke-linecap="round" stroke-linejoin="round"/>
<path d="M38.9828 15H29.9453C26.2004 15 22.6085 16.4877 19.96 19.1359C17.312 21.7842 15.8242 25.3759 15.8242 29.1211C15.8242 33.1471 15.8242 36.464 15.8242 36.464" stroke="white" stroke-width="1.5" stroke-miterlimit="10" stroke-linecap="round" stroke-linejoin="round"/>
<path d="M41.2422 22.9082L44.0664 20.084L46.8906 22.9082" stroke="white" stroke-width="1.5" stroke-miterlimit="10" stroke-linecap="round" stroke-linejoin="round"/>
<path d="M18.6484 35.334L15.8242 38.1582L13 35.334" stroke="white" stroke-width="1.5" stroke-miterlimit="10" stroke-linecap="round" stroke-linejoin="round"/>
</svg>
