<svg width="50" height="50" viewBox="0 0 50 50" fill="none" xmlns="http://www.w3.org/2000/svg">
<rect width="50" height="50" rx="25" fill="#FEEBF1"/>
<path d="M18.3359 23.8583V18.334H23.8602L26.6224 21.0961L21.0981 26.6204L18.3359 23.8583Z" stroke="#A00C46" stroke-width="2" stroke-miterlimit="10" stroke-linecap="round" stroke-linejoin="round"/>
<path d="M22.4785 22.4746L23.8596 23.8557" stroke="#A00C46" stroke-width="2" stroke-miterlimit="10" stroke-linecap="round" stroke-linejoin="round"/>
<path d="M34.1465 18.8594C34.3697 19.8083 34.4844 20.7898 34.4844 21.7891C34.4844 22.7883 34.3697 23.7698 34.1465 24.7188" stroke="#A00C46" stroke-width="2" stroke-miterlimit="10" stroke-linecap="round" stroke-linejoin="round"/>
<path d="M21.7891 30.5781C26.6431 30.5781 30.5781 26.6431 30.5781 21.7891C30.5781 16.935 26.6431 13 21.7891 13C16.935 13 13 16.935 13 21.7891C13 26.6431 16.935 30.5781 21.7891 30.5781Z" stroke="#A00C46" stroke-width="2" stroke-miterlimit="10" stroke-linecap="round" stroke-linejoin="round"/>
<path d="M33.1172 36.0469C34.7352 36.0469 36.0469 34.7352 36.0469 33.1172C36.0469 31.4992 34.7352 30.1875 33.1172 30.1875C31.4992 30.1875 30.1875 31.4992 30.1875 33.1172C30.1875 34.7352 31.4992 36.0469 33.1172 36.0469Z" stroke="#A00C46" stroke-width="2" stroke-miterlimit="10" stroke-linecap="round" stroke-linejoin="round"/>
</svg>
