<svg width="50" height="50" viewBox="0 0 50 50" fill="none" xmlns="http://www.w3.org/2000/svg">
<rect width="50" height="50" rx="25" fill="#FEEBF1"/>
<path d="M27.2578 30.3828L31.1641 26.4766" stroke="#A00C46" stroke-width="2" stroke-miterlimit="10" stroke-linecap="round" stroke-linejoin="round"/>
<mask id="mask0_33129_937" style="mask-type:luminance" maskUnits="userSpaceOnUse" x="13" y="13" width="25" height="25">
<path d="M13 13H38V38H13V13Z" fill="white"/>
</mask>
<g mask="url(#mask0_33129_937)">
<path d="M26.2812 26.4766C26.2812 25.9372 26.7185 25.5 27.2578 25.5C27.7972 25.5 28.2344 25.9372 28.2344 26.4766C28.2344 27.0159 27.7972 27.4531 27.2578 27.4531C26.7185 27.4531 26.2812 27.0159 26.2812 26.4766Z" fill="#A00C46"/>
<path d="M30.1875 30.3828C30.1875 29.8435 30.6247 29.4063 31.1641 29.4063C31.7034 29.4063 32.1406 29.8435 32.1406 30.3828C32.1406 30.9222 31.7034 31.3594 31.1641 31.3594C30.6247 31.3594 30.1875 30.9222 30.1875 30.3828Z" fill="#A00C46"/>
<path d="M16.9062 18.6641C16.9062 18.1247 17.3435 17.6875 17.8828 17.6875C18.4222 17.6875 18.8594 18.1247 18.8594 18.6641C18.8594 19.2034 18.4222 19.6406 17.8828 19.6406C17.3435 19.6406 16.9062 19.2034 16.9062 18.6641Z" fill="#A00C46"/>
<path d="M20.8125 18.6641C20.8125 18.1247 21.2497 17.6875 21.7891 17.6875C22.3284 17.6875 22.7656 18.1247 22.7656 18.6641C22.7656 19.2034 22.3284 19.6406 21.7891 19.6406C21.2497 19.6406 20.8125 19.2034 20.8125 18.6641Z" fill="#A00C46"/>
<path d="M24.7188 18.6641C24.7188 18.1247 25.156 17.6875 25.6953 17.6875C26.2347 17.6875 26.6719 18.1247 26.6719 18.6641C26.6719 19.2034 26.2347 19.6406 25.6953 19.6406C25.156 19.6406 24.7188 19.2034 24.7188 18.6641Z" fill="#A00C46"/>
<path d="M25.6953 14.7578H17.8828C15.7255 14.7578 13.9766 16.5066 13.9766 18.6641C13.9766 20.8214 15.7255 22.5703 17.8828 22.5703V24.5234C19.325 24.5234 20.5706 23.733 21.2473 22.5703H25.6953C27.8526 22.5703 29.6016 20.8214 29.6016 18.6641C29.6016 16.5066 27.8526 14.7578 25.6953 14.7578Z" stroke="#A00C46" stroke-width="2" stroke-miterlimit="10" stroke-linecap="round" stroke-linejoin="round"/>
<path d="M32.6229 21.3997C35.228 22.6664 37.0234 25.3383 37.0234 28.4297C37.0234 30.7099 36.0466 32.7619 34.4885 34.1901C34.8574 34.7865 35.0703 35.4895 35.0703 36.2422H29.2109C24.8962 36.2422 21.3984 32.7444 21.3984 28.4297C21.3984 28.0538 21.425 27.6841 21.4763 27.3224" stroke="#A00C46" stroke-width="2" stroke-miterlimit="10" stroke-linecap="round" stroke-linejoin="round"/>
</g>
</svg>
