<svg width="59" height="59" viewBox="0 0 59 59" fill="none" xmlns="http://www.w3.org/2000/svg">
<rect width="59" height="59" rx="29.5" fill="#F23670"/>
<path d="M36.023 43.9074H17V41.4152C17.7495 40.6657 18.1697 40.2455 18.9191 39.4961H30.4752" stroke="white" stroke-width="1.5" stroke-miterlimit="10"/>
<path d="M32.6747 14V16.3765H29.3818V14H26.0169V16.3765H22.724V14H19.2969V18.9057C20.6499 20.2588 21.4085 21.0173 22.7615 22.3704H32.6372C33.9902 21.0173 34.7488 20.2588 36.1018 18.9057V14H32.6747Z" stroke="white" stroke-width="1.5" stroke-miterlimit="10"/>
<path d="M23.12 22.3711L20.6348 39.4973" stroke="white" stroke-width="1.5" stroke-miterlimit="10"/>
<path d="M32.4277 22.3711L33.9427 32.8108" stroke="white" stroke-width="1.5" stroke-miterlimit="10"/>
<path d="M36.0236 43.8539C39.1767 43.8539 41.7328 41.2978 41.7328 38.1447C41.7328 34.9916 39.1767 32.4355 36.0236 32.4355C32.8705 32.4355 30.3145 34.9916 30.3145 38.1447C30.3145 41.2978 32.8705 43.8539 36.0236 43.8539Z" stroke="white" stroke-width="1.5" stroke-miterlimit="10"/>
<path d="M36.0231 40.1518C37.1319 40.1518 38.0307 39.253 38.0307 38.1442C38.0307 37.0355 37.1319 36.1367 36.0231 36.1367C34.9144 36.1367 34.0156 37.0355 34.0156 38.1442C34.0156 39.253 34.9144 40.1518 36.0231 40.1518Z" stroke="white" stroke-width="1.5" stroke-miterlimit="10"/>
<path d="M37.4434 36.7249L40.0608 34.1074" stroke="white" stroke-width="1.5" stroke-miterlimit="10"/>
<path d="M40.5312 29.8954L42.8895 27.5371L43.4322 28.0798L43.6999 30.4522L46.0992 30.7469L46.5879 31.2355L44.2297 33.5938C42.9474 33.5938 42.2285 33.5938 40.9462 33.5938L40.5312 33.1788C40.5312 31.8965 40.5312 31.1776 40.5312 29.8954Z" stroke="white" stroke-width="1.5" stroke-miterlimit="10"/>
</svg>
