<svg width="59" height="59" viewBox="0 0 59 59" fill="none" xmlns="http://www.w3.org/2000/svg">
<rect width="59" height="59" rx="29.5" fill="#F23670"/>
<path d="M22.6895 37.5756L24.181 36.084" stroke="white" stroke-width="1.5" stroke-miterlimit="10"/>
<path d="M26.793 37.5756L28.2845 36.084" stroke="white" stroke-width="1.5" stroke-miterlimit="10"/>
<path d="M30.8965 37.5756L32.388 36.084" stroke="white" stroke-width="1.5" stroke-miterlimit="10"/>
<path d="M35 37.5756L36.4915 36.084" stroke="white" stroke-width="1.5" stroke-miterlimit="10"/>
<path d="M29.5908 27.8378C31.0303 27.8378 32.1972 26.6709 32.1972 25.2314C32.1972 23.7919 31.0303 22.625 29.5908 22.625C28.1513 22.625 26.9844 23.7919 26.9844 25.2314C26.9844 26.6709 28.1513 27.8378 29.5908 27.8378Z" stroke="white" stroke-width="1.5" stroke-miterlimit="10"/>
<path d="M30.6604 27.6074L32.1472 28.2023C33.2264 28.6341 33.9341 29.6794 33.9341 30.8419V32.4324H25.2461V30.8421C25.2461 29.6795 25.9539 28.6341 27.0334 28.2024L28.5211 27.6074" stroke="white" stroke-width="1.5" stroke-miterlimit="10"/>
<path d="M40.1816 13H19V46.8906H40.1816V13Z" stroke="white" stroke-width="1.5" stroke-miterlimit="10"/>
<path d="M26.418 42.6543H32.7637" stroke="white" stroke-width="1.5" stroke-miterlimit="10"/>
<path d="M25.3555 13V15.1182C25.3555 16.288 26.3038 17.2363 27.4736 17.2363H31.71C32.8798 17.2363 33.8281 16.288 33.8281 15.1182V13" stroke="white" stroke-width="1.5" stroke-miterlimit="10"/>
</svg>
