<svg width="50" height="50" viewBox="0 0 50 50" fill="none" xmlns="http://www.w3.org/2000/svg">
<rect width="50" height="50" rx="25" fill="#7FCDCF"/>
<path d="M18.9396 34.723H13V15.5859H24.3731" stroke="#013435" stroke-width="1.5" stroke-miterlimit="10" stroke-linecap="round" stroke-linejoin="round"/>
<path d="M15.9395 31.5293H18.9393" stroke="#013435" stroke-width="1.5" stroke-miterlimit="10" stroke-linecap="round" stroke-linejoin="round"/>
<path d="M15.9395 28.3418H18.9393" stroke="#013435" stroke-width="1.5" stroke-miterlimit="10" stroke-linecap="round" stroke-linejoin="round"/>
<path d="M15.9395 25.1523H18.9393" stroke="#013435" stroke-width="1.5" stroke-miterlimit="10" stroke-linecap="round" stroke-linejoin="round"/>
<path d="M15.9395 21.9629H18.9393" stroke="#013435" stroke-width="1.5" stroke-miterlimit="10" stroke-linecap="round" stroke-linejoin="round"/>
<path d="M15.9395 18.7754H24.3729" stroke="#013435" stroke-width="1.5" stroke-miterlimit="10" stroke-linecap="round" stroke-linejoin="round"/>
<path d="M33.6229 24.7721H36.5351V13H24.373V21.9646" stroke="#013435" stroke-width="1.5" stroke-miterlimit="10" stroke-linecap="round" stroke-linejoin="round"/>
<path d="M28.041 16.0996L32.8646 18.6916L28.041 21.6695V16.0996Z" stroke="#013435" stroke-width="1.5" stroke-miterlimit="10" stroke-linecap="round" stroke-linejoin="round"/>
<path d="M18.9396 36.4863H33.623V21.9646H18.9396V36.4863Z" stroke="#013435" stroke-width="1.5" stroke-miterlimit="10" stroke-linecap="round" stroke-linejoin="round"/>
<path d="M27.1602 34.0433L29.3507 31.4707L33.6225 36.4875" stroke="#013435" stroke-width="1.5" stroke-miterlimit="10" stroke-linecap="round" stroke-linejoin="round"/>
<path d="M18.9395 36.4873L24.0619 30.2109L29.1271 36.4873" stroke="#013435" stroke-width="1.5" stroke-miterlimit="10" stroke-linecap="round" stroke-linejoin="round"/>
<path d="M29.35 28.7138C30.1226 28.7138 30.7489 28.0875 30.7489 27.3149C30.7489 26.5423 30.1226 25.916 29.35 25.916C28.5775 25.916 27.9512 26.5423 27.9512 27.3149C27.9512 28.0875 28.5775 28.7138 29.35 28.7138Z" stroke="#013435" stroke-width="1.5" stroke-miterlimit="10" stroke-linecap="round" stroke-linejoin="round"/>
</svg>
