<svg width="50" height="50" viewBox="0 0 50 50" fill="none" xmlns="http://www.w3.org/2000/svg">
<rect width="50" height="50" rx="25" fill="#FEEBF1"/>
<mask id="mask0_33129_932" style="mask-type:luminance" maskUnits="userSpaceOnUse" x="13" y="13" width="25" height="25">
<path d="M13 13H38V38H13V13Z" fill="white"/>
</mask>
<g mask="url(#mask0_33129_932)">
<path d="M31.5914 20.1814C30.4045 16.5776 27.0109 13.9762 23.0098 13.9762C18.0209 13.9762 13.9766 18.0206 13.9766 23.0094C13.9766 26.4414 15.8903 29.4262 18.7089 30.9551" stroke="#A00C46" stroke-width="2" stroke-miterlimit="10" stroke-linecap="round" stroke-linejoin="round"/>
<path d="M21.3008 25.5C22.1309 25.8299 22.9489 25.9395 23.3271 25.9395C24.1361 25.9395 24.8164 25.2836 24.8164 24.4746C24.8164 23.6656 24.084 23.0098 23.1562 23.0098C22.082 23.0098 21.3496 22.3539 21.3496 21.5449C21.3496 20.7359 22.0055 20.0801 22.8145 20.0801C23.2499 20.0801 23.791 20.1289 24.6699 20.4707" stroke="#A00C46" stroke-width="2" stroke-miterlimit="10" stroke-linecap="round" stroke-linejoin="round"/>
<path d="M23.2051 20.0801V19.0547" stroke="#A00C46" stroke-width="2" stroke-miterlimit="10" stroke-linecap="round" stroke-linejoin="round"/>
<path d="M23.2051 25.9395V26.916" stroke="#A00C46" stroke-width="2" stroke-miterlimit="10" stroke-linecap="round" stroke-linejoin="round"/>
<path d="M37.0234 32.4336V37.0234" stroke="#A00C46" stroke-width="2" stroke-miterlimit="10" stroke-linecap="round" stroke-linejoin="round"/>
<path d="M33.1172 33.5566V37.0234" stroke="#A00C46" stroke-width="2" stroke-miterlimit="10" stroke-linecap="round" stroke-linejoin="round"/>
<path d="M29.2109 35.7051V37.0234" stroke="#A00C46" stroke-width="2" stroke-miterlimit="10" stroke-linecap="round" stroke-linejoin="round"/>
<path d="M25.3047 34.875V37.0234" stroke="#A00C46" stroke-width="2" stroke-miterlimit="10" stroke-linecap="round" stroke-linejoin="round"/>
<path d="M17.9609 37.0234L23.6229 31.3996C24.5076 30.604 25.8368 30.5619 26.77 31.2999L26.8657 31.37C27.876 32.1689 29.3332 32.0457 30.1948 31.0882L33.6547 27.4043" stroke="#A00C46" stroke-width="2" stroke-miterlimit="10" stroke-linecap="round" stroke-linejoin="round"/>
<path d="M37.0234 28.5273V25.8906C37.0234 24.812 36.149 23.9375 35.0703 23.9375H32.4336" stroke="#A00C46" stroke-width="2" stroke-miterlimit="10" stroke-linecap="round" stroke-linejoin="round"/>
</g>
</svg>
